<?xml version="1.0" standalone="no"?>
<!DOCTYPE svg PUBLIC "-//W3C//DTD SVG 20010904//EN"
 "http://www.w3.org/TR/2001/REC-SVG-20010904/DTD/svg10.dtd">
<svg version="1.0" xmlns="http://www.w3.org/2000/svg"
 width="1389.000000pt" height="495.000000pt" viewBox="0 0 1389.000000 495.000000"
 preserveAspectRatio="xMidYMid meet">

<g transform="translate(0.000000,495.000000) scale(0.100000,-0.100000)"
fill="#000000" stroke="none">
<path d="M8653 4540 c-14 -6 -24 -19 -24 -32 -1 -13 -3 -32 -4 -43 -2 -11 -6
-42 -9 -70 -3 -27 -8 -66 -11 -85 -4 -33 -7 -55 -20 -170 -3 -25 -8 -61 -10
-80 -3 -19 -7 -54 -10 -77 -3 -23 -7 -59 -9 -80 -3 -21 -7 -56 -10 -78 -3 -22
-8 -60 -11 -85 -3 -25 -8 -65 -11 -90 -2 -25 -7 -61 -9 -80 -3 -19 -7 -53 -9
-75 -5 -38 -10 -79 -21 -170 -3 -22 -8 -58 -10 -80 -3 -22 -7 -56 -10 -75 -2
-19 -7 -60 -10 -90 -4 -30 -8 -66 -10 -80 -2 -14 -6 -47 -10 -75 -3 -27 -7
-66 -10 -85 -2 -19 -7 -55 -10 -80 -3 -25 -7 -61 -10 -80 -2 -19 -7 -60 -10
-90 -4 -30 -8 -66 -10 -80 -2 -14 -6 -47 -10 -75 -3 -27 -7 -66 -10 -85 -2
-19 -7 -55 -10 -80 -10 -82 -15 -125 -20 -165 -3 -22 -8 -60 -11 -85 -2 -25
-7 -61 -9 -80 -3 -19 -7 -53 -9 -75 -3 -22 -8 -60 -11 -85 -3 -25 -7 -61 -10
-80 -10 -81 -15 -122 -20 -163 -3 -23 -8 -62 -11 -87 -2 -25 -7 -61 -9 -80 -3
-19 -7 -55 -10 -80 -5 -45 -9 -75 -20 -160 -3 -25 -8 -63 -10 -85 -3 -22 -7
-56 -10 -75 -2 -19 -7 -60 -10 -90 -4 -30 -8 -66 -10 -80 -2 -14 -6 -47 -10
-75 -3 -27 -7 -66 -10 -85 -2 -19 -7 -57 -10 -85 -3 -27 -8 -57 -11 -66 -2 -9
0 -28 5 -43 l11 -26 524 0 c410 0 526 3 534 13 6 7 13 35 16 62 4 28 8 66 11
85 9 71 16 126 21 170 2 25 7 61 9 80 3 19 7 53 9 75 3 22 7 58 10 80 3 22 7
58 10 80 3 22 8 60 11 85 3 25 8 65 11 90 7 69 14 122 19 150 2 14 7 52 10 85
4 33 8 71 10 85 2 14 6 48 9 75 3 28 8 66 11 85 3 19 7 61 11 92 3 31 7 65 9
75 2 10 4 25 4 33 1 13 90 15 754 12 594 -2 756 0 770 10 18 13 23 30 32 107
3 25 7 62 10 81 2 19 7 60 10 90 4 30 8 66 10 80 6 36 18 142 19 163 0 16 18
17 224 17 128 0 231 4 242 10 18 10 26 33 35 100 2 19 7 55 10 80 3 25 8 65
11 90 2 25 7 61 9 80 3 19 7 54 10 78 3 23 7 61 10 85 3 23 8 60 10 82 3 22 7
56 10 75 2 19 7 60 10 90 4 30 8 66 10 80 11 81 15 110 20 155 3 28 7 66 10
85 2 19 7 54 9 78 3 23 8 61 11 85 7 52 13 107 21 172 3 28 7 58 10 67 3 9 -4
26 -16 38 -20 20 -29 21 -251 18 l-229 -3 5 45 c3 25 7 61 10 80 9 73 16 127
20 170 6 54 13 102 21 152 4 29 1 41 -15 57 l-21 21 -1262 -1 c-728 0 -1273
-4 -1285 -9z m2483 -303 c-16 -133 -27 -250 -23 -260 6 -15 29 -17 252 -17
136 0 244 -4 241 -8 -2 -4 -41 -303 -85 -662 -45 -360 -84 -672 -87 -692 l-6
-38 -224 0 c-211 0 -225 -1 -244 -20 -11 -11 -20 -23 -20 -27 0 -5 -14 -114
-30 -243 -16 -129 -30 -241 -30 -247 0 -10 -158 -13 -758 -13 -710 0 -760 -1
-774 -17 -11 -13 -27 -118 -57 -363 -23 -190 -44 -357 -47 -373 l-6 -27 -469
0 -469 0 5 37 c5 33 188 1543 336 2768 28 231 52 426 54 433 4 9 260 12 1238
12 l1233 0 -30 -243z"/>
<path d="M9616 4017 c-17 -13 -30 -103 -112 -763 -85 -689 -91 -750 -76 -767
15 -16 48 -17 533 -15 360 2 521 6 529 14 6 6 52 349 103 762 73 603 89 754
79 764 -20 20 -1030 24 -1056 5z m989 -89 c-16 -136 -18 -157 -40 -328 -3 -22
-7 -58 -10 -80 -3 -22 -7 -59 -10 -83 -3 -23 -8 -62 -11 -87 -2 -25 -7 -61 -9
-80 -3 -19 -7 -54 -10 -78 -3 -23 -7 -60 -10 -82 -3 -22 -7 -58 -10 -80 -3
-22 -7 -58 -10 -80 -4 -38 -7 -58 -20 -170 -3 -25 -8 -61 -10 -80 -3 -19 -7
-60 -11 -90 -3 -30 -9 -58 -13 -62 -8 -9 -951 -16 -946 -8 2 3 6 28 9 55 4 28
8 66 10 85 3 19 8 60 11 90 8 66 11 91 30 240 3 22 7 58 10 80 3 22 7 59 10
83 3 23 8 62 11 87 2 25 7 61 9 80 3 19 7 54 10 78 5 41 9 77 20 165 3 23 8
60 10 82 3 22 7 56 10 75 3 19 7 61 11 92 3 31 7 65 9 75 2 10 4 26 4 36 1 16
31 17 476 17 l474 0 -4 -32z"/>
<path d="M792 4523 c-15 -13 -23 -35 -27 -78 -4 -33 -8 -71 -10 -85 -2 -14 -6
-47 -9 -75 -3 -27 -8 -66 -11 -85 -9 -71 -16 -126 -21 -170 -2 -25 -7 -61 -9
-80 -3 -19 -7 -53 -9 -75 -3 -22 -8 -59 -10 -83 -3 -23 -8 -60 -11 -82 -3 -22
-7 -58 -10 -80 -3 -22 -7 -59 -10 -83 -3 -23 -8 -62 -11 -87 -2 -25 -7 -61 -9
-80 -3 -19 -7 -55 -10 -80 -3 -25 -7 -61 -10 -80 -2 -19 -7 -54 -9 -78 -3 -23
-8 -60 -11 -82 -3 -22 -7 -59 -10 -83 -3 -23 -8 -62 -11 -87 -2 -25 -7 -61 -9
-80 -3 -19 -7 -54 -10 -78 -3 -23 -7 -60 -10 -82 -3 -22 -7 -58 -10 -80 -13
-104 -16 -128 -20 -165 -3 -22 -8 -60 -11 -85 -2 -25 -7 -61 -9 -80 -3 -19 -7
-53 -9 -75 -3 -22 -7 -58 -10 -80 -3 -22 -7 -58 -10 -80 -3 -22 -7 -58 -10
-80 -3 -22 -8 -60 -11 -85 -3 -25 -8 -65 -11 -90 -2 -25 -7 -61 -9 -80 -3 -19
-7 -54 -10 -78 -3 -23 -7 -59 -9 -80 -20 -153 -26 -204 -31 -247 -3 -22 -8
-60 -11 -85 -2 -25 -7 -61 -9 -80 -3 -19 -7 -53 -9 -75 -3 -22 -8 -60 -11 -85
-3 -25 -8 -63 -10 -85 -3 -22 -8 -58 -10 -80 -3 -22 -7 -56 -10 -75 -8 -63
-14 -114 -21 -175 -3 -33 -8 -63 -10 -67 -3 -4 4 -16 16 -28 20 -20 22 -20
1305 -18 846 2 1287 6 1294 13 6 6 12 28 15 50 3 22 8 60 11 85 3 25 8 63 10
85 3 22 7 56 10 75 3 19 7 61 11 92 3 31 7 65 9 75 2 10 4 25 4 33 1 13 31 15
224 12 261 -3 262 -3 272 83 3 28 7 66 10 85 2 19 7 55 10 80 3 25 7 61 10 80
2 19 7 60 10 90 4 30 8 66 10 80 2 14 6 48 10 75 3 28 7 66 10 85 2 19 6 53 9
75 8 64 16 127 21 170 3 22 8 60 11 85 2 25 7 61 9 80 3 19 7 53 9 75 3 22 7
58 10 80 3 22 7 58 10 80 12 98 17 133 21 170 3 22 8 60 11 85 2 25 7 61 9 80
3 19 7 54 10 78 5 41 9 77 20 165 3 23 8 60 10 82 3 22 7 56 10 75 2 19 7 60
10 90 4 30 8 66 10 80 11 81 15 110 20 155 3 28 7 66 10 85 2 19 7 54 9 78 10
75 16 121 21 165 3 23 8 62 11 87 2 25 7 61 9 80 3 19 7 55 10 80 3 25 8 65
11 88 8 73 11 72 -247 72 l-228 0 4 33 c11 85 16 126 21 167 5 52 10 86 24
187 11 78 7 99 -21 113 -11 6 -484 10 -1287 10 -1195 0 -1271 -1 -1290 -17z
m2528 -70 c0 -10 -12 -118 -26 -241 -21 -174 -25 -225 -15 -235 8 -8 81 -14
239 -17 l228 -5 -168 -1345 c-92 -740 -167 -1353 -167 -1362 -1 -17 -30 -18
-461 -18 l-459 0 6 48 c3 26 78 646 167 1377 89 732 159 1339 156 1350 -7 20
-17 20 -532 23 -427 2 -527 0 -536 -11 -6 -7 -89 -636 -183 -1398 -94 -761
-172 -1385 -174 -1387 -1 -1 -215 -1 -476 0 l-474 3 77 640 c247 2038 309
2543 314 2568 l6 27 1239 0 c1173 0 1239 -1 1239 -17z m-564 -491 c-2 -4 -7
-30 -10 -57 -4 -28 -8 -66 -11 -85 -2 -19 -7 -60 -10 -90 -4 -30 -8 -66 -10
-80 -2 -14 -6 -47 -10 -75 -3 -27 -7 -66 -10 -85 -2 -19 -6 -53 -9 -75 -9 -70
-15 -119 -21 -165 -3 -25 -8 -65 -11 -90 -2 -25 -7 -61 -9 -80 -3 -19 -7 -54
-10 -78 -3 -23 -7 -61 -10 -85 -3 -23 -7 -58 -10 -77 -9 -77 -16 -127 -20
-165 -3 -22 -8 -60 -11 -85 -2 -25 -7 -61 -9 -80 -3 -19 -7 -54 -10 -78 -5
-41 -9 -77 -20 -165 -3 -23 -8 -60 -10 -82 -3 -22 -7 -56 -10 -75 -2 -19 -7
-60 -10 -90 -4 -30 -8 -66 -10 -80 -2 -14 -6 -47 -10 -75 -3 -27 -7 -66 -10
-85 -2 -19 -7 -55 -10 -80 -3 -25 -7 -61 -10 -80 -2 -19 -7 -60 -10 -90 -4
-30 -8 -66 -10 -80 -11 -81 -15 -110 -20 -155 -3 -27 -7 -66 -10 -85 -2 -19
-8 -60 -11 -90 -4 -30 -8 -64 -10 -75 -1 -11 -3 -30 -3 -42 l-1 -23 -475 0
-476 0 6 48 c3 26 7 63 10 82 2 19 7 55 10 80 3 25 7 61 10 80 2 19 7 60 10
90 4 30 8 66 10 80 2 14 6 48 10 75 3 28 7 66 10 85 2 19 6 53 9 75 9 70 15
119 21 165 3 25 8 65 11 90 2 25 7 61 9 80 3 19 7 54 10 78 3 23 7 60 10 82 3
22 7 58 10 80 3 22 7 58 10 80 3 22 7 59 10 83 3 23 8 62 11 87 2 25 7 61 9
80 3 19 7 53 9 75 3 22 7 58 10 80 3 22 7 58 10 80 13 104 16 128 21 168 3 23
8 62 11 87 2 25 7 61 9 80 3 19 7 53 9 75 3 22 7 58 10 80 3 22 8 59 10 83 3
23 8 60 11 82 3 22 7 58 10 80 4 38 7 58 20 170 3 25 8 61 10 80 3 19 7 60 11
90 3 30 9 58 13 62 4 4 218 9 476 11 259 1 471 3 473 5 2 1 1 -2 -2 -6z"/>
<path d="M12563 4530 c-13 -5 -23 -13 -23 -18 0 -4 -6 -57 -14 -118 -8 -60
-17 -136 -21 -169 -3 -33 -8 -71 -10 -85 -2 -14 -6 -47 -9 -75 -3 -27 -8 -68
-11 -90 -23 -182 -35 -277 -39 -315 -6 -52 -14 -120 -21 -170 -5 -35 -42 -341
-51 -415 -7 -65 -14 -118 -19 -155 -5 -35 -42 -341 -51 -415 -7 -65 -14 -118
-19 -155 -5 -35 -42 -341 -51 -415 -7 -65 -14 -118 -19 -155 -5 -35 -42 -341
-51 -415 -7 -64 -14 -118 -19 -155 -8 -58 -44 -351 -50 -405 -3 -27 -7 -66
-10 -85 -10 -78 -16 -128 -25 -194 -5 -40 -5 -78 1 -92 l9 -24 514 0 c415 0
516 3 525 13 10 13 23 86 36 212 4 33 8 71 10 85 2 14 6 48 9 75 3 28 8 68 11
90 26 206 35 277 40 320 3 28 7 66 10 85 5 39 11 91 20 160 3 25 12 97 20 160
8 63 17 138 20 165 3 28 7 66 10 85 5 39 11 91 20 160 3 25 12 97 20 160 8 63
17 138 20 165 3 28 7 66 10 85 5 39 12 98 20 163 3 23 12 94 20 157 8 63 17
138 20 165 3 28 7 66 10 85 5 39 11 91 20 160 3 25 12 97 20 160 8 63 17 138
20 165 3 28 7 66 10 85 5 39 12 98 20 163 3 23 12 94 20 157 8 63 17 138 20
165 3 28 7 66 10 85 8 61 15 123 21 170 3 25 9 75 14 112 11 73 7 94 -21 108
-23 13 -985 12 -1016 0z m963 -132 c-8 -69 -166 -1351 -304 -2463 l-87 -700
-463 -3 -462 -2 5 37 c3 21 75 612 161 1313 85 701 171 1411 191 1578 l37 302
464 0 465 0 -7 -62z"/>
<path d="M5211 4496 c-6 -8 -14 -31 -16 -52 -3 -22 -7 -57 -10 -79 -2 -22 -7
-60 -10 -85 -3 -25 -7 -61 -10 -80 -8 -60 -18 -144 -18 -157 0 -10 -56 -13
-242 -13 -195 0 -245 -3 -254 -14 -12 -14 -16 -34 -26 -136 -4 -30 -8 -66 -10
-80 -2 -14 -6 -47 -10 -75 -3 -27 -7 -66 -10 -85 -6 -47 -14 -116 -20 -165 -3
-22 -7 -56 -10 -75 -2 -19 -7 -60 -10 -90 -4 -30 -8 -66 -10 -80 -2 -14 -6
-47 -10 -75 -3 -27 -7 -66 -10 -85 -2 -19 -7 -55 -10 -80 -3 -25 -7 -61 -10
-80 -2 -19 -7 -60 -10 -90 -4 -30 -8 -66 -10 -80 -11 -81 -15 -110 -20 -155
-3 -27 -7 -66 -10 -85 -2 -19 -7 -55 -10 -80 -3 -25 -7 -61 -10 -80 -2 -19 -7
-60 -10 -90 -4 -30 -8 -66 -10 -80 -2 -14 -6 -47 -10 -75 -3 -27 -7 -66 -10
-85 -2 -19 -7 -55 -10 -80 -10 -82 -15 -125 -20 -165 -3 -22 -8 -60 -11 -85
-2 -25 -7 -61 -9 -80 -3 -19 -7 -55 -10 -80 -3 -25 -8 -63 -10 -85 -3 -22 -8
-58 -10 -80 -3 -22 -7 -56 -10 -75 -2 -19 -7 -55 -10 -80 -3 -25 -8 -65 -11
-90 -2 -25 -7 -61 -9 -80 -3 -19 -7 -55 -10 -80 -5 -43 -10 -80 -20 -165 -3
-22 -8 -58 -10 -80 -3 -22 -7 -56 -10 -75 -3 -19 -7 -62 -11 -95 -3 -33 -7
-62 -9 -65 -1 -3 1 -15 6 -27 l8 -23 524 0 c408 0 527 3 535 13 10 11 16 40
26 132 3 22 8 60 11 85 3 25 7 61 10 80 2 19 7 55 10 80 3 25 8 65 11 90 2 25
7 61 9 80 3 19 7 53 9 75 3 22 7 58 10 80 3 22 7 58 10 80 3 22 7 58 10 80 3
22 8 60 11 85 3 25 8 65 11 90 2 25 7 61 9 80 3 19 7 53 9 75 5 39 9 74 21
165 3 25 8 63 10 85 3 22 7 56 10 75 2 19 7 60 10 90 4 30 8 66 10 80 2 14 6
48 10 75 3 28 7 66 10 85 10 74 18 146 19 163 0 16 17 17 212 17 116 0 327 -3
468 -7 l257 -6 -6 -59 c-4 -32 -8 -68 -10 -80 -2 -13 -6 -45 -9 -73 -3 -27 -8
-66 -11 -85 -2 -19 -7 -55 -10 -80 -3 -25 -7 -61 -10 -80 -2 -19 -7 -60 -10
-90 -4 -30 -8 -66 -10 -80 -2 -14 -6 -47 -10 -75 -3 -27 -7 -66 -10 -85 -2
-19 -7 -54 -9 -78 -9 -72 -16 -125 -21 -167 -3 -22 -8 -60 -11 -85 -2 -25 -7
-61 -9 -80 -3 -19 -7 -55 -10 -80 -3 -25 -8 -63 -10 -85 -3 -22 -7 -56 -10
-75 -2 -19 -7 -55 -10 -80 -3 -25 -8 -63 -10 -85 -3 -22 -8 -58 -10 -80 -13
-113 -16 -133 -20 -165 -19 -143 -19 -149 10 -160 35 -13 1010 -14 1035 0 23
12 29 40 45 190 4 30 8 66 10 80 2 14 6 48 10 75 3 28 7 66 10 85 2 19 6 53 9
75 8 64 16 127 21 170 3 22 8 60 11 85 2 25 7 61 9 80 3 19 7 53 9 75 3 22 7
58 10 80 3 22 8 59 10 83 3 23 8 59 10 80 3 20 8 57 11 82 3 25 8 65 11 90 2
25 7 61 9 80 3 19 7 53 9 75 5 39 9 74 21 165 3 25 8 63 10 85 3 22 7 56 10
75 2 19 7 60 10 90 4 30 8 68 11 85 3 16 7 49 9 72 3 23 7 60 10 83 3 22 7 58
10 80 3 22 7 58 10 80 3 22 7 59 10 83 3 23 8 62 11 87 2 25 7 61 9 80 3 19 7
55 10 80 5 43 10 80 20 165 3 22 8 58 10 80 3 22 7 56 10 75 2 19 7 60 10 90
4 30 8 66 10 80 11 81 15 110 20 155 3 28 7 66 10 85 2 19 7 55 10 80 3 25 7
57 10 71 3 14 1 38 -4 52 l-11 27 -240 0 -240 0 4 28 c3 15 7 47 10 72 6 56
15 124 21 170 2 19 7 60 11 90 3 30 8 58 10 62 2 3 0 18 -6 32 l-10 26 -1034
0 c-870 0 -1035 -2 -1045 -14z m2019 -64 c0 -4 -12 -103 -26 -220 -26 -204
-26 -213 -9 -232 17 -19 32 -20 247 -20 221 0 228 -1 228 -20 0 -11 -74 -618
-165 -1349 -91 -732 -165 -1337 -165 -1345 0 -14 -51 -16 -470 -16 -458 0
-470 1 -470 19 0 22 137 1159 145 1208 4 24 1 37 -15 53 -20 20 -30 20 -523
20 -474 0 -505 -1 -520 -18 -13 -14 -33 -154 -92 -628 -42 -335 -78 -619 -80
-631 l-5 -23 -470 0 -469 0 4 28 c7 35 315 2579 322 2652 l5 55 237 -3 c221
-2 238 -1 254 16 13 14 24 74 44 243 l27 224 983 -3 c541 -1 983 -6 983 -10z"/>
<path d="M5664 4019 c-4 -7 -35 -242 -70 -523 -58 -471 -62 -512 -47 -528 15
-17 50 -18 523 -18 470 0 508 1 523 18 21 24 141 999 127 1037 l-10 25 -519 0
c-376 0 -522 -3 -527 -11z m991 -82 c-10 -83 -16 -126 -20 -157 -9 -71 -16
-126 -21 -170 -2 -25 -7 -63 -10 -85 -2 -22 -7 -56 -9 -75 -3 -19 -7 -55 -10
-80 -11 -89 -15 -126 -20 -160 -6 -45 -17 -139 -20 -165 -2 -20 -10 -20 -474
-23 -260 -1 -470 2 -467 6 3 5 8 35 11 68 3 32 8 70 10 84 2 14 6 48 10 75 3
28 7 66 10 85 2 19 7 54 9 78 3 23 8 60 11 82 3 22 7 58 10 80 3 22 7 57 9 78
6 43 12 93 22 177 4 33 8 69 10 80 1 11 3 27 3 35 1 13 59 15 470 12 l468 -2
-2 -23z"/>
</g>
</svg>
